<svg xmlns="http://www.w3.org/2000/svg" width="240" height="240" viewBox="0 0 240 240" version="1.1">
	<path d="M 50.462 30.243 C 49.666 32.328, 50.441 162, 51.250 162 C 51.663 162, 81.685 162, 117.966 162 L 183.932 162 183.716 95.750 L 183.500 29.500 117.221 29.243 C 64.729 29.039, 50.843 29.247, 50.462 30.243 M 61 62.571 L 61 85.141 71.624 99.071 L 82.249 113 88.874 112.949 L 95.500 112.899 113.861 89.949 L 132.223 67 143.861 67.014 L 155.500 67.028 163.897 77.514 C 168.516 83.281, 172.453 88, 172.647 88 C 172.841 88, 173 77.200, 173 64 L 173 40 117 40 L 61 40 61 62.571 M 118.978 101.291 L 100.456 124.500 88.890 124.780 L 77.324 125.061 71.659 117.780 C 68.543 113.776, 64.872 109.150, 63.502 107.500 L 61.010 104.500 61.005 128.250 L 61 152 117 152 L 173 152 172.977 128.750 L 172.954 105.500 161.370 91.750 L 149.787 78 143.643 78.041 L 137.500 78.083 118.978 101.291 M 50.436 184.305 C 50.161 185.023, 50.062 191.211, 50.218 198.055 L 50.500 210.500 54.750 210.807 L 59 211.115 59 207.557 L 59 204 65.540 204 C 70.700 204, 72.706 203.538, 75.040 201.812 C 77.734 199.820, 78 199.098, 78 193.764 C 78 188.625, 77.662 187.606, 75.250 185.484 C 72.710 183.248, 71.677 183.061, 61.719 183.032 C 53.748 183.008, 50.807 183.340, 50.436 184.305 M 83 196.969 L 83 211 95.500 211 L 108 211 108 207.500 L 108 204 99.427 204 C 91.801 204, 90.890 203.807, 91.187 202.250 C 91.454 200.846, 92.754 200.441, 97.760 200.202 C 103.937 199.908, 104 199.875, 104 196.952 L 104 194 97.427 194 C 91.706 194, 90.897 193.773, 91.188 192.250 C 91.469 190.780, 92.850 190.453, 99.821 190.209 L 108.121 189.917 107.810 186.709 L 107.500 183.500 95.250 183.219 L 83 182.938 83 196.969 M 122.527 186.250 C 121.774 188.037, 119.124 194.338, 116.640 200.250 L 112.124 211 116.843 211 C 121.168 211, 121.656 210.750, 122.694 208 C 123.762 205.171, 124.137 205, 129.292 205 C 134.422 205, 134.834 205.184, 136 208 C 137.113 210.687, 137.699 211, 141.621 211 C 144.030 211, 146 210.768, 146 210.484 C 146 210.200, 143.465 203.900, 140.366 196.484 L 134.732 183 129.315 183 C 124.151 183, 123.834 183.152, 122.527 186.250 M 160.378 186.697 C 159.517 188.789, 157.055 194.733, 154.907 199.908 C 152.758 205.082, 151 209.695, 151 210.158 C 151 210.621, 152.956 211, 155.347 211 L 159.694 211 163.055 202 C 164.903 197.050, 166.672 193, 166.986 193 C 167.299 193, 169.056 197.050, 170.890 202 L 174.226 211 178.680 211 C 183.896 211, 184.037 212.442, 177.160 195.373 L 172.377 183.500 167.160 183.197 C 161.964 182.895, 161.936 182.909, 160.378 186.697 M 59 193.500 L 59 197 63.927 197 C 67.809 197, 68.933 196.629, 69.228 195.250 C 70.112 191.126, 68.965 190, 63.883 190 L 59 190 59 193.500 M 128.070 194.315 C 126.518 198.399, 126.710 199, 129.567 199 C 131.767 199, 132.036 198.678, 131.446 196.750 C 129.955 191.874, 129.204 191.333, 128.070 194.315" stroke="none" fill="#E49621" fill-rule="evenodd"/>
</svg>
